<?xml version="1.0" encoding="utf-8"?>
<!-- Generator: Adobe Illustrator 24.1.1, SVG Export Plug-In . SVG Version: 6.00 Build 0)  -->
<svg version="1.1" id="Layer_1" xmlns="http://www.w3.org/2000/svg" xmlns:xlink="http://www.w3.org/1999/xlink" x="0px" y="0px"
	 viewBox="0 0 512 512" style="enable-background:new 0 0 512 512;" xml:space="preserve">
<g>
	<path d="M460.8,128c28.3,0,51.2,22.9,51.2,51.2v256c0,28.3-22.9,51.2-51.2,51.2H51.2C22.9,486.4,0,463.5,0,435.2v-256
		C0,151,23,128,51.2,128h60.9l44.3-88.3c4.3-8.6,13.1-14,22.8-14.1h153.6c9.7-0.1,18.7,5.4,23,14.1l43.8,88.3H460.8z M195.1,76.8
		l-44.3,88.3c-4.3,8.6-13.2,14.1-22.8,14.1H51.2v256h409.6v-256H384c-9.7,0.1-18.7-5.4-23-14.1l-43.8-88.3H195.1z M256,384
		c-56.6,0-102.4-45.8-102.4-102.4c0-56.6,45.8-102.4,102.4-102.4S358.4,225,358.4,281.6C358.4,338.2,312.5,384,256,384z M256,332.8
		c28.3,0,51.2-22.9,51.2-51.2s-22.9-51.2-51.2-51.2s-51.2,22.9-51.2,51.2S227.7,332.8,256,332.8z"/>
</g>
</svg>
