<?xml version="1.0" encoding="utf-8"?>
<!-- Generator: Adobe Illustrator 27.2.0, SVG Export Plug-In . SVG Version: 6.00 Build 0)  -->
<svg version="1.1" id="Layer_1" xmlns="http://www.w3.org/2000/svg" xmlns:xlink="http://www.w3.org/1999/xlink" x="0px" y="0px"
	 viewBox="0 0 512 512" style="enable-background:new 0 0 512 512;" xml:space="preserve">
<style type="text/css">
	.st0{fill:#212121;}
</style>
<g>
	<path class="st0" d="M243.43,302.85l-2.38,2.02L44,498.31C58.09,506.99,74.68,512,92.44,512h327.11c17.76,0,34.36-5.01,48.44-13.69
		L270.94,304.86l-2.66-2.22C260.85,297.39,250.81,297.46,243.43,302.85z M512,92.44C512,41.39,470.61,0,419.56,0H92.44
		C41.39,0,0,41.39,0,92.44v327.11c0,17.84,5.05,34.49,13.8,48.62l197.36-193.75l3.85-3.49c23.75-19.84,58.48-19.78,82.16,0.16
		l3.66,3.33L498.2,468.17c8.75-14.12,13.8-30.78,13.8-48.62V92.44z M348.44,220.44c-31.42,0-56.89-25.47-56.89-56.89
		c0-31.42,25.47-56.89,56.89-56.89c31.42,0,56.89,25.47,56.89,56.89C405.33,194.97,379.86,220.44,348.44,220.44z"/>
</g>
</svg>
